<svg width="1466" height="1466" viewBox="0 0 1466 1466" fill="none" xmlns="http://www.w3.org/2000/svg">
<path fill-rule="evenodd" clip-rule="evenodd" d="M369.326 210.394C369.324 210.392 369.323 210.391 369.326 210.394ZM376.27 215.392L534.85 329.544C550.875 341.079 560.374 359.623 560.374 379.373V951.31L376.27 1046.37V215.392ZM700.644 878.881V379.373C700.644 314.481 669.434 253.552 616.78 215.65L451.256 96.4995C361.366 31.7933 236 96.0526 236 206.834V1053.57C236 1155.39 343.773 1221.06 434.215 1174.36L560.374 1109.22V1259.23C560.374 1360.72 667.523 1426.41 757.929 1380.36L1155.78 1177.67C1246.45 1131.47 1256.06 1005.64 1173.46 946.195L1010.94 829.232C956.048 789.729 883.636 784.39 823.549 815.417L700.644 878.881ZM700.644 1036.79V1252.07L1085.71 1055.9L929.023 943.136C916.974 934.464 901.078 933.292 887.888 940.103L700.644 1036.79Z" fill="#5193E7"/>
<path opacity="0.7" d="M701.015 406.26L560.772 453.236V951.483L701.015 879.148V406.26Z" fill="url(#paint0_linear)"/>
<path opacity="0.7" d="M701.015 1038.09L560.772 1109.44V1223C560.773 1273.5 572.634 1311.97 622.5 1288.5C656.5 1272.5 656 1272.5 701.015 1251V1038.09Z" fill="url(#paint1_linear)"/>
<path opacity="0.7" d="M236 198L236 981.5C236 1031.5 233.619 1041.78 263.5 1068.5C288.659 1091 331.5 1067 376.243 1046.5V214C376.243 214 376.243 165.5 398 126.5C414 94.5 469.5 103.5 430.5 84C376.243 62 328.591 72.1252 296.5 93C268.613 114.994 240 141.5 236 198Z" fill="url(#paint2_linear)"/>
<defs>
<linearGradient id="paint0_linear" x1="629.664" y1="407.244" x2="629.664" y2="951.483" gradientUnits="userSpaceOnUse">
<stop stop-color="#3564A7" stop-opacity="0"/>
<stop offset="1" stop-color="#3564A7"/>
</linearGradient>
<linearGradient id="paint1_linear" x1="724" y1="1412.5" x2="592.266" y2="1067.12" gradientUnits="userSpaceOnUse">
<stop stop-color="#3564A7" stop-opacity="0"/>
<stop offset="1" stop-color="#3564A7"/>
</linearGradient>
<linearGradient id="paint2_linear" x1="350.5" y1="1122" x2="212.5" y2="-171" gradientUnits="userSpaceOnUse">
<stop stop-color="#61A0FB"/>
<stop offset="0.831976" stop-color="#61A1F2"/>
</linearGradient>
</defs>
</svg>
